<svg width="140" height="139" version="1.1" xmlns="http://www.w3.org/2000/svg" desc="Created with imagetracer.js version 1.2.6" ><path fill="rgb(0,0,0)" stroke="rgb(0,0,0)" stroke-width="1" opacity="0" d="M 0 0 L 90 0.5 Q 87.3 1.6 88 5 L 62.5 5 L 45.5 9 Q 27.3 16.3 16 30.5 L 7 46.5 L 6 51 Q 2.2 50 1 52.5 Q 0 57 2.5 58 L 42.5 58 L 44 56.5 Q 45.9 51.1 42.5 52 L 40 50.5 L 48.5 41 L 59.5 36 L 76.5 34 L 77.5 35 L 88 35 L 89 39 Q 93.6 40.3 95 37.5 L 95 30 L 116.5 30 Q 115.8 27 120 28 L 120 33 Q 113.6 30.9 116 38 L 136.5 38 L 137 33 L 134 32.5 L 134 22.5 L 127.5 14 L 116.5 12 L 108.5 12 L 107 10.5 Q 106.3 8.3 108.5 9 L 111.5 10 Q 114.5 9.5 114 5.5 Q 113.5 2.5 109.5 3 L 106.5 4 L 103.5 3 L 100.5 4 L 98.5 3 L 96 4 L 96 9 L 97.5 9 L 99.5 10 L 102 9 L 100.5 12 L 95 12 L 95 1.5 L 94.5 0 L 139.5 0 L 140 0.5 L 140 139 L 0 139 L 0 0 Z M 126 43 Q 119 49 115 59 Q 114 67 117 71 L 122 74 Q 130 76 134 73 L 138 68 L 137 56 L 130 45 Q 129 42 126 43 Z M 74 54 L 64 58 L 60 63 L 58 65 L 4 65 L 3 70 L 4 76 L 60 76 L 71 82 L 77 82 L 83 78 L 86 72 L 81 73 Q 72 75 70 71 L 71 67 L 73 65 L 86 65 L 85 61 L 74 54 Z M 4 81 L 1 84 L 2 87 L 6 88 Q 10 101 18 110 L 36 124 L 53 131 L 64 133 L 88 133 L 88 136 Q 89 139 94 138 L 95 137 L 95 101 Q 94 98 89 99 L 88 104 L 63 103 Q 53 101 48 96 L 42 90 L 45 86 L 45 83 L 44 81 L 4 81 Z " /><path fill="rgb(129,200,222)" stroke="rgb(129,200,222)" stroke-width="1" opacity="0.8352941176470589" d="M 98.5 3 L 102.5 4 L 105.5 3 L 108.5 4 L 111.5 3 Q 114.5 3.5 114 7.5 Q 113.5 10.5 109.5 10 L 107 9 L 108.5 12 L 124.5 13 L 132 18.5 Q 135.8 23.3 134 33 L 137 33 L 137 38 L 116.5 38 L 116 33 Q 122.4 35.1 120 28 Q 115.8 27 116.5 30 L 95 30 L 95 12.5 Q 95.1 11.4 100.5 12 L 102 9 L 98.5 10 L 96 9 L 96 4 L 97.5 4 L 98.5 3 Z " /><path fill="rgb(129,200,222)" stroke="rgb(129,200,222)" stroke-width="1" opacity="0.8352941176470589" d="M 125.5 43 Q 129.3 42.3 130 44.5 L 137 55.5 L 138 67.5 L 133.5 73 Q 129.7 75.7 121.5 74 L 117 70.5 Q 113.7 66.8 115 58.5 Q 118.5 49 125.5 43 Z " /><path fill="rgb(129,200,222)" stroke="rgb(129,200,222)" stroke-width="1" opacity="0.8352941176470589" d="M 73.5 54 L 85 60.5 L 86 65 L 72.5 65 L 71 66.5 L 70 70.5 Q 72 75 80.5 73 L 86 72 L 82.5 78 L 76.5 82 L 70.5 82 L 59.5 76 L 4 76 L 3 69.5 L 4 65 L 57.5 65 L 60 62.5 L 63.5 58 L 73.5 54 Z " /><path fill="rgb(45,108,175)" stroke="rgb(45,108,175)" stroke-width="1" opacity="0.9333333333333333" d="M 90.5 0 Q 94.3 -0.8 95 1.5 L 94.5 13 L 94 2.5 L 92.5 1 L 90 2.5 Q 90.8 6.3 88.5 7 L 72.5 7 L 71.5 6 L 70.5 7 L 59.5 7 L 44.5 11 Q 28.2 17.7 18 30.5 L 13 37.5 L 8 50.5 L 5.5 53 Q 0.7 51.3 2 55.5 L 3.5 57 L 41.5 57 L 43 54.5 L 38 51.5 L 39 48.5 L 47.5 40 L 61.5 34 Q 66.3 35.2 67.5 33 L 88.5 33 Q 91 34.2 90 38 L 94 36.5 L 94.5 29 L 95 37.5 Q 93.6 40.3 89 39 L 88 35 L 71.5 34 L 56.5 37 Q 46.5 40.5 41 48.5 L 40 50.5 L 44 52 Q 45.3 56.6 42.5 58 L 2.5 58 L 1 56.5 Q 0 52 2.5 51 Q 6.9 52.5 6 49.5 Q 12.4 30.9 26.5 20 Q 38.1 9.6 56.5 6 Q 61.3 7.3 62.5 5 L 88 5 Q 87.3 1.2 90.5 0 Z " /><path fill="rgb(45,108,175)" stroke="rgb(45,108,175)" stroke-width="1" opacity="0.9333333333333333" d="M 3.5 81 L 43.5 81 L 45 82.5 L 45 85.5 L 42 89.5 L 47.5 96 Q 53.4 101.2 62.5 103 L 88 104 L 89 99 Q 93.6 97.8 95 100.5 L 95 136.5 L 93.5 138 Q 88.8 138.8 88 135.5 L 87.5 133 L 63.5 133 L 52.5 131 L 35.5 124 L 18 109.5 Q 10 100.5 5.5 88 L 2 86.5 L 1 83.5 L 3.5 81 Z M 5 82 L 3 84 Q 2 88 7 86 L 12 99 L 19 109 Q 31 123 51 129 L 60 131 L 90 132 Q 89 136 92 137 L 94 136 L 94 102 L 93 100 L 90 100 L 90 105 L 66 105 L 55 102 L 47 97 L 40 89 Q 39 85 43 86 Q 45 85 43 84 L 43 82 L 5 82 Z " /><path fill="rgb(46,109,176)" stroke="rgb(46,109,176)" stroke-width="1" opacity="1" d="M 91.5 1 L 94 2.5 L 95 28.5 Q 92.3 30.3 94 36.5 L 92.5 38 Q 88.3 39.3 90 34.5 L 88.5 33 L 67.5 33 L 50.5 38 L 39 48.5 L 38 51.5 L 43 54.5 L 41.5 57 L 3.5 57 L 2 55.5 Q 0.7 51.3 5.5 53 L 8 50.5 L 9 45.5 L 15 34.5 L 27.5 21 L 44.5 11 L 59.5 7 L 70.5 7 L 71.5 6 L 72.5 7 L 88.5 7 L 91.5 1 Z " /><path fill="rgb(46,109,176)" stroke="rgb(46,109,176)" stroke-width="1" opacity="1" d="M 4.5 82 L 42.5 82 L 43 83.5 Q 45.3 84.8 42.5 86 Q 38.8 84.8 40 88.5 L 46.5 97 L 54.5 102 L 65.5 105 L 90 105 L 90 100 L 92.5 100 L 94 101.5 L 94 135.5 L 91.5 137 Q 89 135.8 90 132 L 59.5 131 L 50.5 129 Q 30.8 122.7 19 108.5 L 12 98.5 L 6.5 86 Q 1.7 87.7 3 83.5 L 4.5 82 Z " /></svg>